<svg width="61" height="65" fill="none" xmlns="http://www.w3.org/2000/svg"><path d="M51.627 32.408l8.742-10.012-12.83-2.86L48.85 6.182l-12.037 5.39L30.19 0l-6.624 11.572-12.037-5.39 1.311 13.354L0 22.386l8.742 10.012L0 42.431l12.84 2.838-1.323 13.354 12.037-5.38 6.634 11.572 6.623-11.572 12.037 5.38-1.311-13.334 12.84-2.86-8.75-10.02zm4.247 7.544l-7.571-2.65-5.023-6.676 6.687 2.542 5.907 6.784zm1.209-16.47L50.2 31.363l-8.11-3.079 4.879-7.048 10.113 2.246zM45.75 19.907l-4.06 5.888.237-8.534 4.721-6.52-.898 9.166zm-8.742-6.476L45.18 9.78l-4.68 6.414-7.778 2.838 4.287-5.6zm3.142 4.789l-.26 9.862-8.834 3.03v-9.59l9.094-3.302zM30.19 3.535l5.207 9.104-5.207 6.804-5.22-6.804 5.22-9.104zm-6.818 9.896l4.287 5.6-7.8-2.837-4.66-6.415 8.173 3.652zm5.939 8.09v9.591l-8.823-3.03-.27-9.862 9.093 3.301zM18.452 17.26l.228 8.534-4.048-5.888-.899-9.166 4.72 6.52zM3.285 23.473L13.4 21.236l4.866 7.048-8.1 3.07-6.881-7.882zm7.13 9.684l6.686-2.53-5.032 6.676-7.562 2.64 5.907-6.786zm-5.537 8.537l7.746-2.7 8.06 2.415-6.943 2.258-8.863-1.973zm8.678 14.072l1.034-10.517 8.234-2.657.216 8.934-9.483 4.24zm9.762-15.415l-9.258-2.785 5.89-7.804 8.823 3.038-5.455 7.551zm5.993 19.425l-4.525-7.934-.174-7.478 4.699 7.014v8.398zm-4.575-18.367l5.454-7.566 5.453 7.566-5.453 8.112-5.454-8.112zM35.593 51.84l-4.537 7.934v-8.4l4.712-7.014-.175 7.48zM31.584 32.8l8.833-3.038 5.88 7.804-9.258 2.785-5.455-7.55zm5.755 18.724l.206-8.934 8.236 2.657 1.022 10.527-9.464-4.25zm9.3-7.859l-6.944-2.258 8.06-2.425 7.746 2.712-8.863 1.971z" fill="#860000"/></svg>