<svg width="36" height="36" fill="none" xmlns="http://www.w3.org/2000/svg"><path d="M18 3c-4.07 0-4.582.019-6.182.09-1.6.075-2.689.326-3.643.698a7.344 7.344 0 00-2.657 1.73 7.363 7.363 0 00-1.73 2.657c-.372.952-.625 2.044-.698 3.637-.071 1.604-.09 2.114-.09 6.19 0 4.072.019 4.582.09 6.182.075 1.597.326 2.687.698 3.641a7.368 7.368 0 001.73 2.657 7.32 7.32 0 002.655 1.73c.956.372 2.044.625 3.641.698 1.602.071 2.112.09 6.186.09s4.582-.019 6.184-.09c1.595-.075 2.688-.326 3.643-.697 1-.377 1.906-.968 2.655-1.731a7.369 7.369 0 001.73-2.657c.37-.954.623-2.044.698-3.641.071-1.6.09-2.11.09-6.184s-.019-4.584-.09-6.186c-.075-1.595-.328-2.687-.697-3.639a7.361 7.361 0 00-1.731-2.657 7.333 7.333 0 00-2.657-1.73c-.956-.372-2.047-.625-3.643-.698-1.601-.071-2.11-.09-6.186-.09h.006H18zm-1.344 2.704h1.346c4.005 0 4.48.013 6.06.086 1.462.066 2.257.311 2.786.516.7.271 1.2.598 1.725 1.123.525.525.85 1.024 1.121 1.725.207.527.45 1.322.516 2.784.073 1.58.088 2.055.088 6.058s-.015 4.48-.088 6.06c-.066 1.463-.311 2.256-.516 2.785a4.631 4.631 0 01-1.123 1.723 4.635 4.635 0 01-1.725 1.121c-.525.206-1.32.45-2.784.518-1.58.07-2.055.088-6.06.088-4.005 0-4.481-.017-6.062-.088-1.463-.068-2.256-.312-2.784-.518a4.645 4.645 0 01-1.725-1.121 4.65 4.65 0 01-1.125-1.725c-.205-.527-.45-1.322-.516-2.785-.071-1.58-.086-2.055-.086-6.061 0-4.005.015-4.478.086-6.059.067-1.462.311-2.257.518-2.786.271-.7.598-1.2 1.123-1.725a4.634 4.634 0 011.725-1.121c.528-.206 1.321-.45 2.784-.518 1.384-.063 1.92-.082 4.716-.084v.004zm9.352 2.49a1.8 1.8 0 100 3.6 1.8 1.8 0 000-3.6zm-8.006 2.103a7.705 7.705 0 10-.24 15.408 7.705 7.705 0 00.24-15.407zm0 2.702a5 5 0 110 10.002 5 5 0 010-10.002z" fill="#fff"/><path d="M11.748 1.592h.003c1.632-.073 2.17-.092 6.245-.092l-6.248.092zm0 0c-1.735.081-2.985.358-4.109.795a8.844 8.844 0 00-3.182 2.07 8.863 8.863 0 00-2.07 3.181c-.436 1.122-.716 2.375-.795 4.106v.002c-.073 1.636-.092 2.171-.092 6.256 0 4.081.019 4.617.091 6.248v.004c.082 1.737.36 2.989.799 4.115h0a8.863 8.863 0 002.066 3.172 8.817 8.817 0 003.175 2.07c1.125.437 2.375.718 4.115.797h.002c1.634.073 2.169.092 6.252.092s4.617-.019 6.25-.092h.004c1.73-.081 2.985-.358 4.11-.795a8.841 8.841 0 003.184-2.076 8.864 8.864 0 002.062-3.167l.001-.004c.435-1.122.716-2.373.797-4.112v-.004c.073-1.631.092-2.167.092-6.25s-.019-4.618-.092-6.252v-.004c-.081-1.733-.36-2.984-.794-4.105a8.861 8.861 0 00-2.071-3.181 8.833 8.833 0 00-3.183-2.072c-1.124-.435-2.376-.715-4.11-.794h-.001c-1.633-.073-2.167-.092-6.247-.092m-6.254.092l6.254-.092m0 0H18h.002zm-2.846 5.704v0a61.67 61.67 0 00-3.147.079l3.147-.08zm0 0h1.5m-1.5 0h1.5m0 0h1.346c4 0 4.446.013 5.99.084h.003m-7.34-.084l7.34.084m0 0l.115.006a3.293 3.293 0 00-1.15 1.437 3.3 3.3 0 00-.247 1.435 9.204 9.204 0 103.074 3.12 3.3 3.3 0 002.92-1.392m-4.712-4.606l4.711 4.606m0 0l.006.111v.002c.071 1.546.086 1.992.086 5.99 0 3.996-.015 4.445-.086 5.99v.002c-.059 1.295-.269 1.928-.417 2.31l-.004.011-.004.011c-.162.44-.422.839-.76 1.165l-.008.008-.008.01a3.145 3.145 0 01-1.207.782h0l-.006.003c-.37.145-1.004.355-2.305.415l4.713-16.81zM9.688 28.282l.013.006c.378.147 1.01.356 2.308.416 1.546.07 1.997.087 5.993.087 3.996 0 4.445-.017 5.99-.087l-14.304-.422zm0 0l-.014-.004m.014.004l-.014-.004m0 0a3.147 3.147 0 01-1.168-.76l-.015-.016m1.183.776l-1.183-.776m0 0l-.017-.015m.017.015l-.017-.015m0 0a3.15 3.15 0 01-.762-1.17l-.004-.01m.766 1.18l-.766-1.18m0 0l-.004-.01m.004.01l-.004-.01m0 0c-.147-.38-.357-1.014-.416-2.31h0m.416 2.31l-.416-2.31m0 0c-.07-1.546-.084-1.994-.084-5.994 0-3.998.015-4.445.084-5.99.06-1.298.27-1.932.417-2.31v-.001m-.417 14.295l.418-14.295m0 0c.197-.507.409-.832.785-1.208A3.145 3.145 0 019.698 7.7H9.7M7.706 9.691L9.7 7.699m0 0c.378-.147 1.01-.356 2.308-.416L9.7 7.699zm8.3 6.8a3.5 3.5 0 110 7.002 3.5 3.5 0 010-7.002z" stroke="#fff" stroke-opacity=".22" stroke-width="3"/></svg>