<svg width="23" height="27" fill="none" xmlns="http://www.w3.org/2000/svg"><path d="M11.298 11.867c.558 0 1.104-.159 1.569-.456a2.732 2.732 0 001.04-1.212c.214-.494.27-1.038.16-1.562a2.668 2.668 0 00-.772-1.383 2.866 2.866 0 00-1.446-.74 2.943 2.943 0 00-1.632.154c-.516.204-.957.55-1.268.995a2.62 2.62 0 00-.476 1.501c0 .717.298 1.405.827 1.911a2.89 2.89 0 001.998.792zm-1.003 9.336c.131.127.287.228.46.296a1.468 1.468 0 001.545-.296l5.776-5.54a9.06 9.06 0 002.626-4.697c.37-1.78.18-3.625-.545-5.301a9.274 9.274 0 00-3.532-4.118A9.9 9.9 0 0011.298 0 9.9 9.9 0 005.97 1.547a9.275 9.275 0 00-3.532 4.118 8.807 8.807 0 00-.545 5.301 9.06 9.06 0 002.626 4.698l5.776 5.54zM4.56 8.543a6.308 6.308 0 01.937-2.724A6.634 6.634 0 017.57 3.746a7.015 7.015 0 013.729-1.066c1.324 0 2.62.37 3.728 1.066a6.648 6.648 0 012.06 2.061c.519.824.84 1.748.942 2.706a6.25 6.25 0 01-.356 2.831 6.48 6.48 0 01-1.587 2.414l-4.787 4.58-4.788-4.58a6.416 6.416 0 01-1.59-2.397 6.186 6.186 0 01-.359-2.818zm16.622 15.755H1.413a1.45 1.45 0 00-1 .395A1.322 1.322 0 000 25.65c0 .358.149.702.414.955.264.254.624.396.998.396h19.771c.375 0 .734-.142.999-.396.264-.253.413-.597.413-.955s-.149-.702-.413-.956a1.445 1.445 0 00-.999-.395z" fill="#fff"/></svg>