<svg width="29" height="29" fill="none" xmlns="http://www.w3.org/2000/svg"><path d="M6.624 2.407a1.229 1.229 0 00-1.84-.114L2.91 4.17c-.876.877-1.198 2.119-.816 3.208a31.84 31.84 0 007.554 11.977 31.842 31.842 0 0011.977 7.554c1.09.383 2.33.06 3.208-.815l1.874-1.874a1.228 1.228 0 00-.114-1.84l-4.181-3.252a1.228 1.228 0 00-1.052-.22l-3.969.99a3.162 3.162 0 01-3.003-.831l-4.451-4.453a3.163 3.163 0 01-.834-3.004l.993-3.969a1.23 1.23 0 00-.221-1.051L6.624 2.407zM3.416.927a3.163 3.163 0 014.734.295l3.251 4.18a3.16 3.16 0 01.571 2.707l-.991 3.97a1.229 1.229 0 00.322 1.165l4.453 4.453a1.23 1.23 0 001.168.323l3.967-.991a3.162 3.162 0 012.708.57l4.18 3.252a3.162 3.162 0 01.295 4.732L26.2 27.457c-1.341 1.342-3.346 1.93-5.215 1.273A33.774 33.774 0 018.28 20.719 33.774 33.774 0 01.27 8.015C-.388 6.148.201 4.142 1.542 2.801L3.417.927h-.001z" fill="#fff"/></svg>