<svg width="25" height="25" fill="none" xmlns="http://www.w3.org/2000/svg"><path d="M18.65 16L25 22.375 22.375 25l-6.35-6.35c-1.767 1.2-3.7 1.8-5.8 1.8-2.817 0-5.225-1-7.225-3s-3-4.408-3-7.225C0 7.408 1 5 3 3s4.408-3 7.225-3c2.817 0 5.225 1 7.225 3s3 4.408 3 7.225c0 2.117-.6 4.042-1.8 5.775zm-1.625-5.775c0-1.883-.662-3.492-1.987-4.825-1.325-1.333-2.93-2-4.813-2-1.883 0-3.492.667-4.825 2-1.333 1.333-2 2.942-2 4.825s.667 3.488 2 4.813c1.333 1.325 2.942 1.987 4.825 1.987s3.488-.662 4.813-1.987c1.325-1.325 1.987-2.93 1.987-4.813z" fill="#860000"/></svg>