<svg width="30" height="30" fill="none" xmlns="http://www.w3.org/2000/svg"><path d="M19.61 0h-9.204C1.998 0 0 2 0 10.39v9.204C0 28 1.984 30 10.39 30h9.204C28 30 30 28.015 30 19.61v-9.204C30 1.998 28.015 0 19.61 0zm4.609 21.405H22.03c-.828 0-1.077-.67-2.562-2.155-1.296-1.25-1.843-1.406-2.171-1.406-.454 0-.578.124-.578.75v1.968c0 .532-.172.845-1.563.845a8.538 8.538 0 01-6.672-4.001 17.439 17.439 0 01-3.453-7.25c0-.328.125-.625.75-.625h2.187c.563 0 .765.25.986.828 1.061 3.126 2.873 5.844 3.608 5.844.283 0 .405-.125.405-.828v-3.219c-.093-1.469-.873-1.593-.873-2.124a.54.54 0 01.562-.501h3.437c.47 0 .626.234.626.796v4.345c0 .469.203.625.343.625.282 0 .5-.156 1.016-.672a17.999 17.999 0 002.688-4.47.942.942 0 01.953-.624h2.188c.655 0 .795.329.655.796a27.312 27.312 0 01-2.937 5.048c-.235.36-.33.547 0 .969.218.328.985.969 1.5 1.578a9.729 9.729 0 011.844 2.562c.188.609-.126.922-.75.922v-.001z" fill="#5D5FEF"/></svg>